<svg xmlns="http://www.w3.org/2000/svg" width="1200" height="800" viewBox="0 0 1200 800">
  <rect width="1200" height="800" fill="#f8fafc"/>
  <rect x="42" y="42" width="1116" height="716" rx="28" fill="#fff7ed" stroke="#0f172a" stroke-width="12"/>
  <path d="M120 565 C220 470 250 300 410 245 C560 192 698 265 790 182 C885 96 1030 132 1100 248" fill="none" stroke="#0ea5e9" stroke-width="52" stroke-linecap="round"/>
  <path d="M105 590 C235 505 330 430 485 455 C615 476 690 575 835 532 C940 500 1015 430 1098 448" fill="none" stroke="#22c55e" stroke-width="36" stroke-linecap="round" opacity="0.8"/>
  <ellipse cx="604" cy="385" rx="230" ry="168" fill="#fde68a" stroke="#f97316" stroke-width="10" stroke-dasharray="28 18"/>
  <ellipse cx="604" cy="385" rx="112" ry="78" fill="#fed7aa" stroke="#ea580c" stroke-width="8"/>
  <circle cx="486" cy="318" r="42" fill="#ef4444" stroke="#7f1d1d" stroke-width="8"/>
  <circle cx="690" cy="292" r="42" fill="#f59e0b" stroke="#78350f" stroke-width="8"/>
  <circle cx="625" cy="470" r="42" fill="#8b5cf6" stroke="#3b0764" stroke-width="8"/>
  <path d="M218 645 L440 440 L585 380" fill="none" stroke="#16a34a" stroke-width="18" stroke-linecap="round" marker-end="url(#arrow)"/>
  <path d="M995 650 L775 468 L650 402" fill="none" stroke="#dc2626" stroke-width="18" stroke-linecap="round" marker-end="url(#arrow-red)"/>
  <defs>
    <marker id="arrow" viewBox="0 0 10 10" refX="8" refY="5" markerWidth="8" markerHeight="8" orient="auto-start-reverse">
      <path d="M 0 0 L 10 5 L 0 10 z" fill="#16a34a"/>
    </marker>
    <marker id="arrow-red" viewBox="0 0 10 10" refX="8" refY="5" markerWidth="8" markerHeight="8" orient="auto-start-reverse">
      <path d="M 0 0 L 10 5 L 0 10 z" fill="#dc2626"/>
    </marker>
  </defs>
  <text x="600" y="108" text-anchor="middle" font-family="Arial, sans-serif" font-size="46" font-weight="800" fill="#0f172a">BAN DO AR DIEN BIEN PHU</text>
  <text x="486" y="330" text-anchor="middle" font-family="Arial, sans-serif" font-size="28" font-weight="800" fill="#ffffff">A1</text>
  <text x="690" y="304" text-anchor="middle" font-family="Arial, sans-serif" font-size="23" font-weight="800" fill="#ffffff">HL</text>
  <text x="625" y="482" text-anchor="middle" font-family="Arial, sans-serif" font-size="23" font-weight="800" fill="#ffffff">MT</text>
  <text x="600" y="724" text-anchor="middle" font-family="Arial, sans-serif" font-size="28" font-weight="700" fill="#334155">In hoặc mở ảnh này trên màn hình khác, rồi quét bằng điện thoại.</text>
</svg>
